<?xml version="1.0" standalone="yes"?>
<svg xmlns="http://www.w3.org/2000/svg" width="296" height="166">
<path style="fill:#fefefd; stroke:none;" d="M0 0L0 166L296 166L296 0L0 0z"/>
<path style="fill:#54ae57; stroke:none;" d="M156.667 48.3333L157.333 48.6667L156.667 48.3333z"/>
<path style="fill:#2f98e9; stroke:none;" d="M150 90L138 90C139.048 110.194 176.961 117.888 182.442 97C186.431 81.7967 172.004 77.064 161 72.5463C156.623 70.7492 149.6 66.7442 153.608 61.1443C160.701 51.2333 167.276 62.7619 173.259 65.3966C176.063 66.6312 180.003 66 183 66C181.28 46.4516 146.879 40.1694 140.653 60C133.438 82.9786 166.18 76.7154 170.338 91.0154C171.752 95.879 166.267 99.6727 162 99.7978C155.734 99.9816 151.184 95.8513 150 90z"/>
<path style="fill:#54ae57; stroke:none;" d="M165.667 48.3333L166.333 48.6667L165.667 48.3333M57 49L57 108L69 108L69 49L57 49M152 49L153 50L152 49M170 49L171 50L170 49M149 50L150 51L149 50M147 51L148 52L147 51M174 51L175 52L174 51M176 52L177 53L176 52M144 53L145 54L144 53M177 53L178 54L177 53M143 54L144 55L143 54M178 54L179 55L178 54M179 55L180 56L179 55M141 57L142 58L141 57M159 57L159 58L164 58L159 57M155 58L156 59L155 58M166 58L167 59L166 58M181 58L182 59L181 58M140 59L141 60L140 59M152 61L153 62L152 61M182 61L183 62L182 61M170 62L171 63L170 62z"/>
<path style="fill:#f89c13; stroke:none;" d="M86 63L86 64L97 64L86 63M104 63L104 64L107 64L104 63z"/>
<path style="fill:#ed4a3f; stroke:none;" d="M97 69L97 64L86 64L86 107L97 107C97 98.3744 95.1543 87.3166 97.5725 79.0039C98.8219 74.7091 103.231 70.9212 107.891 72.7577C116.769 76.256 113 99.4241 113 107L124 107C124 93.5402 129.179 54.4857 104.002 64.3426C101.288 65.4048 99.1985 67.1492 97 69z"/>
<path style="fill:#f89c13; stroke:none;" d="M114.667 63.3333L115.333 63.6667L114.667 63.3333z"/>
<path style="fill:#54ae57; stroke:none;" d="M139 63L139 67L140 67L139 63z"/>
<path style="fill:#f89c13; stroke:none;" d="M211 63.5293C184.132 69.7383 193.373 115.088 222 108.471C247.976 102.466 238.81 57.1026 211 63.5293M102 64L103 65L102 64M117 64L118 65L117 64M101 65L102 66L101 65M119 65L120 66L119 65z"/>
<path style="fill:#54ae57; stroke:none;" d="M171 65L172 66L171 65z"/>
<path style="fill:#f89c13; stroke:none;" d="M99 66L100 67L99 66M97 67L97 69L99 67L97 67z"/>
<path style="fill:#54ae57; stroke:none;" d="M152 67L153 68L152 67z"/>
<path style="fill:#f89c13; stroke:none;" d="M121 68L122 69L121 68z"/>
<path style="fill:#54ae57; stroke:none;" d="M153 68L154 69L153 68M154 69L155 70L154 69z"/>
<path style="fill:#f89c13; stroke:none;" d="M122 70L123 71L122 70M102.667 72.3333L103.333 72.6667L102.667 72.3333M107.667 72.3333L108.333 72.6667L107.667 72.3333M123.333 72.6667L123.667 73.3333L123.333 72.6667z"/>
<path style="fill:#54ae57; stroke:none;" d="M160 72L161 73L160 72z"/>
<path style="fill:#fefefd; stroke:none;" d="M214.015 72.7824C202.598 76.6882 205.35 104.087 218.981 99.091C229.26 95.3244 226.732 68.4326 214.015 72.7824z"/>
<path style="fill:#f89c13; stroke:none;" d="M100 73L101 74L100 73M110 73L111 74L110 73z"/>
<path style="fill:#54ae57; stroke:none;" d="M142 73L143 74L142 73M163 73L164 74L163 73z"/>
<path style="fill:#f89c13; stroke:none;" d="M99 74L100 75L99 74z"/>
<path style="fill:#54ae57; stroke:none;" d="M143 74L144 75L143 74M166 74L167 75L166 74z"/>
<path style="fill:#f89c13; stroke:none;" d="M98 75L99 76L98 75M111 75L112 76L111 75z"/>
<path style="fill:#54ae57; stroke:none;" d="M144 75L145 76L144 75M169 75L170 76L169 75M145 76L146 77L145 76M171 76L172 77L171 76M173 77L174 78L173 77z"/>
<path style="fill:#f89c13; stroke:none;" d="M97 78L97 107L98 107L97 78z"/>
<path style="fill:#54ae57; stroke:none;" d="M148 78L149 79L148 78z"/>
<path style="fill:#f89c13; stroke:none;" d="M112 79L112 108L124 108L124 107L113 107L112 79z"/>
<path style="fill:#54ae57; stroke:none;" d="M150 79L151 80L150 79M176 79L177 80L176 79M152 80L153 81L152 80M157 82L158 83L157 82M160 83L161 84L160 83M180 83L181 84L180 83M163 84L164 85L163 84M167 86L168 87L167 86M182 87L183 88L182 87M170 89L171 90L170 89M183 91L183 94L184 94L183 91M150 93L151 94L150 93M138 95L139 96L138 95M151 95L152 96L151 95M170 95L171 96L170 95M139 97L140 98L139 97M153 97L154 98L153 97M182 97L183 98L182 97M167 98L168 99L167 98M140 99L141 100L140 99M158.667 99.3333L159.333 99.6667L158.667 99.3333M164.667 99.3333L165.333 99.6667L164.667 99.3333M181 100L182 101L181 100M180 101L181 102L180 101M145 104L146 105L145 104M147 105L148 106L147 105M176 105L177 106L176 105M149 106L150 107L149 106M174 106L175 107L174 106z"/>
<path style="fill:#f89c13; stroke:none;" d="M86 107L86 108L97 108L86 107z"/>
<path style="fill:#54ae57; stroke:none;" d="M152 107L153 108L152 107M171 107L172 108L171 107M155.667 108.333L156.333 108.667L155.667 108.333M167.667 108.333L168.333 108.667L167.667 108.333z"/>
</svg>
